<mxfile host="Electron" agent="Mozilla/5.0 (Windows NT 10.0; Win64; x64) AppleWebKit/537.36 (KHTML, like Gecko) draw.io/27.0.9 Chrome/134.0.6998.205 Electron/35.4.0 Safari/537.36" version="27.0.9">
  <diagram id="C5RBs43oDa-KdzZeNtuy" name="Page-1">
    <mxGraphModel dx="2076" dy="1183" grid="1" gridSize="10" guides="1" tooltips="1" connect="1" arrows="1" fold="1" page="1" pageScale="1" pageWidth="827" pageHeight="1169" math="0" shadow="0">
      <root>
        <mxCell id="WIyWlLk6GJQsqaUBKTNV-0" />
        <mxCell id="WIyWlLk6GJQsqaUBKTNV-1" parent="WIyWlLk6GJQsqaUBKTNV-0" />
        <mxCell id="WIyWlLk6GJQsqaUBKTNV-9" value="No" style="edgeStyle=orthogonalEdgeStyle;rounded=0;html=1;jettySize=auto;orthogonalLoop=1;fontSize=11;endArrow=block;endFill=0;endSize=8;strokeWidth=1;shadow=0;labelBackgroundColor=none;" parent="WIyWlLk6GJQsqaUBKTNV-1" source="WIyWlLk6GJQsqaUBKTNV-10" target="WIyWlLk6GJQsqaUBKTNV-12" edge="1">
          <mxGeometry y="10" relative="1" as="geometry">
            <mxPoint as="offset" />
            <Array as="points">
              <mxPoint x="530" y="340" />
            </Array>
          </mxGeometry>
        </mxCell>
        <mxCell id="aZ6wP4FZhijbICGc4C7Z-14" value="" style="edgeStyle=orthogonalEdgeStyle;rounded=0;orthogonalLoop=1;jettySize=auto;html=1;exitX=0.5;exitY=1;exitDx=0;exitDy=0;entryX=0.5;entryY=0;entryDx=0;entryDy=0;" edge="1" parent="WIyWlLk6GJQsqaUBKTNV-1" source="WIyWlLk6GJQsqaUBKTNV-12" target="aZ6wP4FZhijbICGc4C7Z-11">
          <mxGeometry relative="1" as="geometry">
            <mxPoint x="390" y="530" as="targetPoint" />
          </mxGeometry>
        </mxCell>
        <mxCell id="WIyWlLk6GJQsqaUBKTNV-12" value="Revise power and hardware systems" style="rounded=1;whiteSpace=wrap;html=1;fontSize=12;glass=0;strokeWidth=1;shadow=0;" parent="WIyWlLk6GJQsqaUBKTNV-1" vertex="1">
          <mxGeometry x="470" y="360" width="120" height="40" as="geometry" />
        </mxCell>
        <mxCell id="aZ6wP4FZhijbICGc4C7Z-21" value="" style="edgeStyle=orthogonalEdgeStyle;rounded=0;orthogonalLoop=1;jettySize=auto;html=1;entryX=1;entryY=0.5;entryDx=0;entryDy=0;" edge="1" parent="WIyWlLk6GJQsqaUBKTNV-1" source="aZ6wP4FZhijbICGc4C7Z-15" target="WIyWlLk6GJQsqaUBKTNV-12">
          <mxGeometry relative="1" as="geometry">
            <mxPoint x="230" y="570" as="targetPoint" />
            <Array as="points">
              <mxPoint x="620" y="547" />
              <mxPoint x="620" y="380" />
            </Array>
          </mxGeometry>
        </mxCell>
        <mxCell id="aZ6wP4FZhijbICGc4C7Z-37" value=" Sea Turtle Hatchling Protection Robot â€“ Second Phase Overview" style="swimlane;" vertex="1" parent="WIyWlLk6GJQsqaUBKTNV-1">
          <mxGeometry x="240" y="40" width="400" height="780" as="geometry" />
        </mxCell>
        <mxCell id="aZ6wP4FZhijbICGc4C7Z-5" value="" style="edgeStyle=orthogonalEdgeStyle;rounded=0;orthogonalLoop=1;jettySize=auto;html=1;" edge="1" parent="aZ6wP4FZhijbICGc4C7Z-37" source="WIyWlLk6GJQsqaUBKTNV-3" target="aZ6wP4FZhijbICGc4C7Z-4">
          <mxGeometry relative="1" as="geometry" />
        </mxCell>
        <mxCell id="WIyWlLk6GJQsqaUBKTNV-3" value="&amp;nbsp;Implement software modules" style="rounded=1;whiteSpace=wrap;html=1;fontSize=12;glass=0;strokeWidth=1;shadow=0;" parent="aZ6wP4FZhijbICGc4C7Z-37" vertex="1">
          <mxGeometry x="130" y="120" width="120" height="40" as="geometry" />
        </mxCell>
        <mxCell id="WIyWlLk6GJQsqaUBKTNV-4" value="Yes" style="rounded=0;html=1;jettySize=auto;orthogonalLoop=1;fontSize=11;endArrow=block;endFill=0;endSize=8;strokeWidth=1;shadow=0;labelBackgroundColor=none;edgeStyle=orthogonalEdgeStyle;" parent="aZ6wP4FZhijbICGc4C7Z-37" target="WIyWlLk6GJQsqaUBKTNV-10" edge="1">
          <mxGeometry y="20" relative="1" as="geometry">
            <mxPoint as="offset" />
            <mxPoint x="190" y="290" as="sourcePoint" />
          </mxGeometry>
        </mxCell>
        <mxCell id="aZ6wP4FZhijbICGc4C7Z-8" value="" style="edgeStyle=orthogonalEdgeStyle;rounded=0;orthogonalLoop=1;jettySize=auto;html=1;entryX=0;entryY=0.5;entryDx=0;entryDy=0;" edge="1" parent="aZ6wP4FZhijbICGc4C7Z-37" source="WIyWlLk6GJQsqaUBKTNV-10" target="aZ6wP4FZhijbICGc4C7Z-4">
          <mxGeometry relative="1" as="geometry">
            <mxPoint x="50" y="320" as="targetPoint" />
            <Array as="points">
              <mxPoint x="90" y="300" />
              <mxPoint x="90" y="210" />
            </Array>
          </mxGeometry>
        </mxCell>
        <mxCell id="aZ6wP4FZhijbICGc4C7Z-10" value="Yes" style="edgeLabel;html=1;align=center;verticalAlign=middle;resizable=0;points=[];" vertex="1" connectable="0" parent="aZ6wP4FZhijbICGc4C7Z-8">
          <mxGeometry x="-0.3" y="-7" relative="1" as="geometry">
            <mxPoint x="3" as="offset" />
          </mxGeometry>
        </mxCell>
        <mxCell id="WIyWlLk6GJQsqaUBKTNV-10" value="Issues Detected?" style="rhombus;whiteSpace=wrap;html=1;shadow=0;fontFamily=Helvetica;fontSize=12;align=center;strokeWidth=1;spacing=6;spacingTop=-4;" parent="aZ6wP4FZhijbICGc4C7Z-37" vertex="1">
          <mxGeometry x="140" y="260" width="100" height="80" as="geometry" />
        </mxCell>
        <mxCell id="aZ6wP4FZhijbICGc4C7Z-1" value="" style="edgeStyle=orthogonalEdgeStyle;rounded=0;orthogonalLoop=1;jettySize=auto;html=1;" edge="1" parent="aZ6wP4FZhijbICGc4C7Z-37" source="aZ6wP4FZhijbICGc4C7Z-0" target="WIyWlLk6GJQsqaUBKTNV-3">
          <mxGeometry relative="1" as="geometry" />
        </mxCell>
        <mxCell id="aZ6wP4FZhijbICGc4C7Z-0" value="" style="ellipse;fillColor=strokeColor;html=1;" vertex="1" parent="aZ6wP4FZhijbICGc4C7Z-37">
          <mxGeometry x="175" y="50" width="30" height="30" as="geometry" />
        </mxCell>
        <mxCell id="aZ6wP4FZhijbICGc4C7Z-6" value="" style="edgeStyle=orthogonalEdgeStyle;rounded=0;orthogonalLoop=1;jettySize=auto;html=1;" edge="1" parent="aZ6wP4FZhijbICGc4C7Z-37" source="aZ6wP4FZhijbICGc4C7Z-4" target="WIyWlLk6GJQsqaUBKTNV-10">
          <mxGeometry relative="1" as="geometry" />
        </mxCell>
        <mxCell id="aZ6wP4FZhijbICGc4C7Z-4" value="Debug and fix issues" style="rounded=1;whiteSpace=wrap;html=1;fontSize=12;glass=0;strokeWidth=1;shadow=0;" vertex="1" parent="aZ6wP4FZhijbICGc4C7Z-37">
          <mxGeometry x="130" y="190" width="120" height="40" as="geometry" />
        </mxCell>
        <mxCell id="aZ6wP4FZhijbICGc4C7Z-16" value="" style="edgeStyle=orthogonalEdgeStyle;rounded=0;orthogonalLoop=1;jettySize=auto;html=1;" edge="1" parent="aZ6wP4FZhijbICGc4C7Z-37" source="aZ6wP4FZhijbICGc4C7Z-11" target="aZ6wP4FZhijbICGc4C7Z-15">
          <mxGeometry relative="1" as="geometry" />
        </mxCell>
        <mxCell id="aZ6wP4FZhijbICGc4C7Z-11" value="Field Testing" style="rounded=1;whiteSpace=wrap;html=1;fontSize=12;glass=0;strokeWidth=1;shadow=0;" vertex="1" parent="aZ6wP4FZhijbICGc4C7Z-37">
          <mxGeometry x="130" y="400" width="120" height="40" as="geometry" />
        </mxCell>
        <mxCell id="aZ6wP4FZhijbICGc4C7Z-18" value="" style="edgeStyle=orthogonalEdgeStyle;rounded=0;orthogonalLoop=1;jettySize=auto;html=1;entryX=0.5;entryY=0;entryDx=0;entryDy=0;" edge="1" parent="aZ6wP4FZhijbICGc4C7Z-37" source="aZ6wP4FZhijbICGc4C7Z-15" target="aZ6wP4FZhijbICGc4C7Z-17">
          <mxGeometry relative="1" as="geometry" />
        </mxCell>
        <mxCell id="aZ6wP4FZhijbICGc4C7Z-15" value="Field Testing Successful?" style="rhombus;whiteSpace=wrap;html=1;rounded=1;glass=0;strokeWidth=1;shadow=0;" vertex="1" parent="aZ6wP4FZhijbICGc4C7Z-37">
          <mxGeometry x="144" y="470" width="90" height="75" as="geometry" />
        </mxCell>
        <mxCell id="aZ6wP4FZhijbICGc4C7Z-27" value="" style="edgeStyle=orthogonalEdgeStyle;rounded=0;orthogonalLoop=1;jettySize=auto;html=1;" edge="1" parent="aZ6wP4FZhijbICGc4C7Z-37" source="aZ6wP4FZhijbICGc4C7Z-17" target="aZ6wP4FZhijbICGc4C7Z-26">
          <mxGeometry relative="1" as="geometry" />
        </mxCell>
        <mxCell id="aZ6wP4FZhijbICGc4C7Z-17" value="Analyze Data &amp;amp; Tune Algorithms" style="rounded=1;whiteSpace=wrap;html=1;fontSize=12;glass=0;strokeWidth=1;shadow=0;" vertex="1" parent="aZ6wP4FZhijbICGc4C7Z-37">
          <mxGeometry x="129" y="590" width="120" height="40" as="geometry" />
        </mxCell>
        <mxCell id="aZ6wP4FZhijbICGc4C7Z-19" value="Yes" style="text;html=1;align=center;verticalAlign=middle;resizable=0;points=[];autosize=1;strokeColor=none;fillColor=none;" vertex="1" parent="aZ6wP4FZhijbICGc4C7Z-37">
          <mxGeometry x="200" y="550" width="40" height="30" as="geometry" />
        </mxCell>
        <mxCell id="aZ6wP4FZhijbICGc4C7Z-24" value="" style="ellipse;html=1;shape=endState;fillColor=strokeColor;" vertex="1" parent="aZ6wP4FZhijbICGc4C7Z-37">
          <mxGeometry x="174" y="740" width="30" height="30" as="geometry" />
        </mxCell>
        <mxCell id="aZ6wP4FZhijbICGc4C7Z-28" value="" style="edgeStyle=orthogonalEdgeStyle;rounded=0;orthogonalLoop=1;jettySize=auto;html=1;" edge="1" parent="aZ6wP4FZhijbICGc4C7Z-37" source="aZ6wP4FZhijbICGc4C7Z-26" target="aZ6wP4FZhijbICGc4C7Z-24">
          <mxGeometry relative="1" as="geometry" />
        </mxCell>
        <mxCell id="aZ6wP4FZhijbICGc4C7Z-26" value="Deployment" style="rounded=1;whiteSpace=wrap;html=1;fontSize=12;glass=0;strokeWidth=1;shadow=0;" vertex="1" parent="aZ6wP4FZhijbICGc4C7Z-37">
          <mxGeometry x="129" y="670" width="120" height="40" as="geometry" />
        </mxCell>
        <mxCell id="aZ6wP4FZhijbICGc4C7Z-22" value="No" style="text;html=1;align=center;verticalAlign=middle;resizable=0;points=[];autosize=1;strokeColor=none;fillColor=none;" vertex="1" parent="aZ6wP4FZhijbICGc4C7Z-37">
          <mxGeometry x="234" y="480" width="40" height="30" as="geometry" />
        </mxCell>
      </root>
    </mxGraphModel>
  </diagram>
</mxfile>
